<?xml version="1.0" encoding="UTF-8" standalone="no"?>
<svg
   xmlns:dc="http://purl.org/dc/elements/1.1/"
   xmlns:cc="http://creativecommons.org/ns#"
   xmlns:rdf="http://www.w3.org/1999/02/22-rdf-syntax-ns#"
   xmlns:svg="http://www.w3.org/2000/svg"
   xmlns="http://www.w3.org/2000/svg"
   id="svg8"
   version="1.1"
   viewBox="0 0 83.778267 69.81765"
   height="69.81765mm"
   width="83.778267mm">
  <defs
     id="defs2" />
  <metadata
     id="metadata5">
    <rdf:RDF>
      <cc:Work
         rdf:about="">
        <dc:format>image/svg+xml</dc:format>
        <dc:type
           rdf:resource="http://purl.org/dc/dcmitype/StillImage" />
        <dc:title></dc:title>
      </cc:Work>
    </rdf:RDF>
  </metadata>
  <g
     transform="translate(-37.170348,-86.248842)"
     id="layer1">
    <path
       id="path815"
       d="m 58.264755,106.16956 c 0.428538,-2.25303 1.860071,-0.12823 2.672696,-0.53454 0.450763,-0.22538 0.618316,-0.8437 1.069078,-1.06908 0.15937,-0.0797 0.375172,0.0797 0.534541,0 0.285488,-0.14274 1.322199,-1.3222 1.603616,-1.60362 0.281416,-0.28141 1.318127,-1.46087 1.603618,-1.60362 0.159366,-0.0797 0.408546,0.126 0.534538,0 0.125992,-0.12599 -0.125992,-0.40854 0,-0.53453 0.125992,-0.126 0.375171,0.0797 0.53454,0 0.22538,-0.1127 0.309158,-0.42185 0.534538,-0.53454 0.159369,-0.0797 0.408548,0.12599 0.53454,0 0.125992,-0.126 -0.125992,-0.40855 0,-0.534542 0.125992,-0.125992 0.408546,0.125992 0.534538,0 0.125992,-0.125992 -0.125992,-0.408548 0,-0.53454 0.125992,-0.125992 0.408548,0.125992 0.53454,0 0.251984,-0.251984 -0.251984,-0.817094 0,-1.069078 0.125992,-0.125992 0.408546,0.125992 0.534538,0 0.125992,-0.125992 -0.125992,-0.408546 0,-0.534538 0.125992,-0.125992 0.408548,0.125992 0.53454,0 0.125992,-0.125992 -0.07968,-0.375171 0,-0.53454 0.112689,-0.22538 0.421847,-0.309158 0.534538,-0.534538 0.07968,-0.159369 -0.07969,-0.375171 0,-0.53454 0.112691,-0.22538 0.421849,-0.309158 0.53454,-0.534538 0.07968,-0.159369 -0.125992,-0.408548 0,-0.53454 0.125992,-0.125992 0.408546,0.125992 0.534538,0 0.251984,-0.251984 -0.251984,-0.817094 0,-1.069078 0.125992,-0.125992 0.408548,0.125992 0.53454,0 0.251984,-0.251984 -0.251984,-0.817095 0,-1.069078 0.125992,-0.125992 0.408546,0.125992 0.534538,0 0.125992,-0.125992 -0.125992,-0.408546 0,-0.534538 0.125992,-0.125992 0.408548,0.125992 0.53454,0 0.128628,-0.128627 -0.128627,-2.009532 0,-2.138156 0.125992,-0.125995 0.408546,0.125992 0.534538,0 0.125992,-0.125995 -0.07969,-0.375171 0,-0.534541 0.112691,-0.225382 0.421849,-0.309157 0.53454,-0.534537 0.07968,-0.159369 -0.125992,-0.408549 0,-0.534541 0.125992,-0.125992 0.408546,0.125992 0.534538,0 0.125992,-0.125992 -0.07968,-0.375171 0,-0.53454 0.112691,-0.22538 0.356359,-0.356359 0.53454,-0.534538 0.178179,-0.178181 0.309158,-0.421849 0.534538,-0.53454 0.159369,-0.07968 0.375171,0.07968 0.53454,0 0.22538,-0.112689 0.309158,-0.421846 0.534538,-0.534538 0.02797,-0.01397 1.575652,-0.01397 1.603619,0 0.612804,0.306404 0.743548,1.115322 1.069078,1.603616 0.139774,0.209664 0.356359,0.356362 0.534537,0.53454 0.35636,0.35636 0.636929,0.809789 1.069078,1.069078 0.483159,0.289894 1.099651,0.282554 1.603619,0.534541 0.247533,0.123767 1.82377,1.82377 2.138156,2.138156 0.178178,0.178178 0.309158,0.421846 0.534538,0.534538 0.159369,0.07968 0.408548,-0.125992 0.53454,0 0.125992,0.125992 -0.07968,0.375171 0,0.53454 0.263001,0.526 1.875155,1.612154 2.138156,2.138156 0.07968,0.159367 -0.07968,0.375169 0,0.534538 0.112691,0.225382 0.356359,0.356359 0.534538,0.53454 0.178181,0.178178 0.356359,0.356359 0.53454,0.534538 0.178178,0.178181 0.356359,0.356359 0.53454,0.53454 0.178179,0.178179 0.421847,0.309158 0.534538,0.534538 0.07969,0.159369 -0.07968,0.375171 0,0.53454 0.225383,0.450763 0.843695,0.618316 1.069078,1.069078 0.159369,0.318732 -0.159369,0.750342 0,1.069082 0.112691,0.22538 0.421849,0.30915 0.534541,0.53453 0.08126,0.16252 0,1.76905 0,2.13816 0,0.12964 -0.0172,1.58643 0,1.60362 0.125991,0.12599 0.375168,-0.0797 0.534537,0 0.225383,0.11269 0.309158,0.42185 0.534541,0.53454 0.119806,0.0599 2.011132,0 2.138156,0 0.356359,0 0.712718,0 1.069078,0 0.356359,0 0.723357,0.0864 1.069078,0 0.386524,-0.0966 0.678391,-0.4564 1.069078,-0.53454 0.524158,-0.10483 1.069078,0 1.603616,0 1.913048,0 2.440658,0.19972 4.276308,-0.53454 0.73986,-0.29594 1.42544,-0.71272 2.13816,-1.06908 0.35636,-0.17818 0.73757,-0.31353 1.06908,-0.53454 0.20966,-0.13977 0.35636,-0.35636 0.53454,-0.53454 0.53454,-0.53454 1.06908,-1.06908 1.60361,-1.60361 0.17818,-0.17818 0.30916,-0.42185 0.53454,-0.53454 0.15937,-0.0797 0.35636,0 0.53454,0 0.17818,0 0.40855,-0.126 0.53454,0 0.12599,0.12599 0.17818,0.53454 0,0.53454 -0.17818,0 0,-0.71272 0,-0.53454 0,0.12702 -0.0599,2.01835 0,2.13815 0.14275,0.28549 1.3222,1.3222 1.60362,1.60362 0.42002,0.42002 2.33221,2.50245 2.67269,2.67269 0.31874,0.15937 0.8171,-0.25198 1.06908,0 1.10598,1.10599 -1.69008,-0.0432 0.53454,1.06908 0.15937,0.0797 0.37517,-0.0797 0.53454,0 0.28549,0.14275 1.3222,1.3222 1.60362,1.60362 0.28141,0.28142 1.46087,1.31813 1.60361,1.60362 0.014,0.028 0.014,1.57565 0,1.60361 -0.11269,0.22538 -0.42184,0.30916 -0.53453,0.53454 -0.0797,0.15937 0.12599,0.40855 0,0.53454 -1.10599,1.10598 0.0432,-1.69008 -1.06908,0.53454 -0.0797,0.15937 0.0797,0.37517 0,0.53454 -0.22538,0.45076 -0.8437,0.61832 -1.06908,1.06908 -0.0797,0.15937 0.0797,0.37517 0,0.53454 -0.11269,0.22538 -0.35636,0.35636 -0.53454,0.53454 -0.17818,0.17818 -0.30916,0.42185 -0.53454,0.53453 -0.15937,0.0797 -0.37517,-0.0797 -0.53454,0 -0.22538,0.1127 -0.35636,0.35636 -0.53454,0.53455 -0.17818,0.17818 -0.35636,0.35635 -0.53454,0.53454 -1.95997,1.95997 -3.91995,3.91995 -5.87993,5.87992 -1.77284,1.77285 0.50397,-0.25198 -1.06907,0.53454 -0.22538,0.11269 -0.30916,0.42185 -0.53454,0.53454 -0.15937,0.0797 -0.40855,-0.12599 -0.53454,0 -0.12599,0.12599 0.0797,0.37517 0,0.53454 -0.11269,0.22538 -0.42185,0.30916 -0.53454,0.53454 -0.0797,0.15937 0.0797,0.37517 0,0.53454 -0.59095,1.18189 -0.33176,0.16588 -1.06908,0.53454 -0.22538,0.11269 -0.35636,0.35636 -0.53454,0.53454 -0.17818,0.17818 -0.35636,0.35636 -0.53454,0.53454 -0.17818,0.17818 -0.35636,0.35635 -0.53454,0.53454 -0.17817,0.17817 -0.42184,0.30915 -0.53453,0.53453 -0.0797,0.15937 0.0797,0.37517 0,0.53454 -0.1127,0.22538 -0.42185,0.30916 -0.53454,0.53454 -0.0797,0.15937 0,0.35636 0,0.53454 0,0.17818 0,0.35636 0,0.53454 0,0.82447 -0.12501,2.58222 0,3.20723 0.0781,0.39069 0.35636,0.71272 0.53454,1.06908 0.17817,0.35636 0.35636,0.71272 0.53453,1.06908 0.35636,0.71272 0.62707,1.47514 1.06908,2.13816 0.3244,0.4866 1.36673,1.12983 1.60362,1.60361 0.0797,0.15937 -0.12599,0.40855 0,0.53454 0.12599,0.12599 0.40855,-0.12599 0.53454,0 0.25198,0.25199 -0.15937,0.75034 0,1.06908 0.32072,0.64145 1.28289,0.96217 1.60362,1.60362 0.78652,1.57304 -1.23831,-0.70377 0.53453,1.06908 0.17818,0.17818 0.35636,0.35636 0.53454,0.53453 0.17818,0.17819 0.42185,0.30916 0.53454,0.53454 0.15937,0.31874 -0.25198,0.8171 0,1.06908 0.12599,0.12599 0.40855,-0.12599 0.53454,0 0.25199,0.25199 -0.15937,0.75034 0,1.06908 0.11269,0.22538 0.42185,0.30916 0.53454,0.53454 0.0703,0.14055 0,1.85864 0,2.13816 0,0.27952 0.0703,1.9976 0,2.13815 -0.11269,0.22538 -0.42185,0.30916 -0.53454,0.53454 -0.0797,0.15937 0.12599,0.40855 0,0.53454 -0.12599,0.12599 -0.37517,-0.0797 -0.53454,0 -0.45076,0.22538 -0.61831,0.8437 -1.06908,1.06908 -0.15937,0.0797 -0.36167,-0.0432 -0.53453,0 -0.54664,0.13666 -1.05699,0.39788 -1.60362,0.53454 -0.45732,0.11433 -2.13842,0 -2.6727,0 -0.42654,0 -2.352,0.10689 -2.67269,0 -1.93786,-0.64596 -0.38043,-0.25362 -1.60362,-1.06908 -0.663012,-0.44201 -1.47514,-0.62707 -2.138154,-1.06908 -0.209664,-0.13977 -0.324877,-0.39476 -0.534541,-0.53454 -0.331507,-0.221 -0.737571,-0.31353 -1.069078,-0.53454 -0.209663,-0.13977 -0.309157,-0.42185 -0.534537,-0.53453 -0.159369,-0.0797 -0.408549,0.12599 -0.534541,0 -0.125992,-0.126 0.125992,-0.40855 0,-0.53455 -0.109278,-0.10927 -1.391676,0.10598 -1.603615,0 -0.225383,-0.11269 -0.309158,-0.42184 -0.534541,-0.53453 -0.28998,-0.14499 -1.991894,0.14626 -2.138156,0 -0.125992,-0.12599 0.125992,-0.40855 0,-0.53454 -0.267269,-0.26727 -1.336347,0.26727 -1.603616,0 -0.125994,-0.126 0.125992,-0.40855 0,-0.53454 -0.125994,-0.126 -0.408548,0.12599 -0.53454,0 -0.125992,-0.126 0.125992,-0.40855 0,-0.53454 -0.125992,-0.12599 -0.375171,0.0797 -0.53454,0 -0.450763,-0.22538 -0.618313,-0.8437 -1.069078,-1.06908 -0.159367,-0.0797 -0.375169,0.0797 -0.534538,0 -0.285488,-0.14274 -1.322202,-1.3222 -1.603618,-1.60362 -0.281414,-0.28141 -1.460871,-1.31813 -1.603616,-1.60361 -0.07968,-0.15937 0.125992,-0.40855 0,-0.53454 -0.125992,-0.126 -0.408549,0.12599 -0.534541,0 -0.125991,-0.126 0.07968,-0.37517 0,-0.53454 -0.17024,-0.34049 -2.25267,-2.25267 -2.672693,-2.6727 -0.8909,-0.89089 -1.781797,-1.78179 -2.672697,-2.67269 -0.281416,-0.28142 -1.318127,-1.46087 -1.603616,-1.60362 -0.159369,-0.0797 -0.375171,0.0797 -0.53454,0 -0.141925,-0.071 -1.532654,-1.46169 -1.603616,-1.60362 -0.07968,-0.15936 0.125992,-0.40854 0,-0.53454 -0.125992,-0.12599 -0.375171,0.0797 -0.53454,0 -0.22538,-0.11268 -0.309158,-0.42184 -0.534538,-0.53453 -0.159369,-0.0797 -0.408548,0.12599 -0.53454,0 -0.125992,-0.126 0.125992,-0.40855 0,-0.53454 -0.125992,-0.126 -0.375169,0.0797 -0.534538,0 -0.450762,-0.22538 -0.618315,-0.8437 -1.069078,-1.06908 -0.159369,-0.0797 -0.375171,0.0797 -0.53454,0 -0.22538,-0.11269 -0.309158,-0.42185 -0.534538,-0.53454 -0.04557,-0.0228 -2.092589,-0.0228 -2.138156,0 -1.181896,0.59095 -0.16588,0.33176 -0.53454,1.06908 -0.112692,0.22538 -0.35636,0.35636 -0.534538,0.53454 -0.314386,0.31438 -2.014389,1.89062 -2.138156,2.13815 -0.159369,0.31874 0.159366,0.75034 0,1.06908 -0.112691,0.22538 -0.421849,0.30916 -0.53454,0.53454 -0.213815,0.42763 0.213815,1.17599 0,1.60362 -0.112692,0.22538 -0.421849,0.30915 -0.534538,0.53454 -0.144992,0.28998 0.146262,1.99189 0,2.13815 -0.125992,0.12599 -0.408549,-0.12599 -0.53454,0 -0.125992,0.12599 0.125991,0.40855 0,0.53454 -0.125992,0.12599 -0.35636,0 -0.534538,0 -0.178181,0 -0.35636,0 -0.534541,0 -1.069078,0 -2.138156,0 -3.207234,0 -0.178181,0 -0.408545,0.12599 -0.53454,0 -0.125992,-0.12599 0.125995,-0.40855 0,-0.53454 -0.146262,-0.14626 -1.848175,0.14499 -2.138156,0 -0.22538,-0.11269 -0.309158,-0.42185 -0.534538,-0.53454 -0.318738,-0.15936 -0.75034,0.15937 -1.069078,0 -0.225383,-0.11269 -0.309158,-0.42184 -0.53454,-0.53454 -0.159367,-0.0797 -0.375169,0.0797 -0.534538,0 -0.225383,-0.11269 -0.309158,-0.42184 -0.53454,-0.53454 -0.318736,-0.15936 -0.817094,0.25199 -1.069078,0 -0.125992,-0.12599 0.125992,-0.40854 0,-0.53453 -0.109279,-0.10928 -1.391677,0.10597 -1.603616,0 -0.225383,-0.11269 -0.309158,-0.42185 -0.53454,-0.53454 -0.15937,-0.0797 -0.375169,0.0797 -0.534538,0 -0.225383,-0.11269 -0.309158,-0.42185 -0.53454,-0.53454 -0.140552,-0.0703 -1.858635,0 -2.138157,0 -0.240733,0 -1.440936,-0.0813 -1.603615,0 -0.891154,0.44558 -0.241525,1.06908 -1.603619,1.06908 -0.178178,0 -0.408545,0.12599 -0.534537,0 -0.125992,-0.126 0,-0.35636 0,-0.53454 0,-0.17818 0,-0.35636 0,-0.53454 0,-0.17818 -0.07969,-0.37517 0,-0.53454 0.590946,-1.1819 0.331758,-0.16588 1.069078,-0.53454 0.22538,-0.11269 0.356359,-0.35636 0.534537,-0.53454 0.178181,-0.17818 0.35636,-0.35636 0.534541,-0.53454 0.281416,-0.28141 1.460873,-1.31813 1.603615,-1.60362 0.07968,-0.15937 0,-0.35636 0,-0.53453 0.178181,-0.17818 0.421849,-0.30916 0.534541,-0.53454 0.168611,-0.33723 -0.168614,-2.33547 0,-2.6727 0.112691,-0.22538 0.421849,-0.30916 0.534538,-0.53454 0.07968,-0.15937 0,-0.35636 0,-0.53454 0.178181,-0.17818 0.421849,-0.30915 0.53454,-0.53454 0.159369,-0.31873 -0.159369,-0.75034 0,-1.06907 0.112691,-0.22538 0.421849,-0.30916 0.534538,-0.53454 0.07968,-0.15937 -0.07969,-0.37517 0,-0.53454 0.112691,-0.22538 0.421849,-0.30916 0.53454,-0.53454 0.18461,-0.36923 -0.187635,-2.48506 0,-2.6727 0.125992,-0.12599 0.408546,0.126 0.534538,0 0.02151,-0.0215 0,-1.94185 0,-2.13815 0,-0.37889 0.0691,-3.06903 0,-3.20724 -0.112689,-0.22538 -0.421847,-0.30915 -0.534538,-0.53453 -0.07969,-0.15937 0.07968,-0.37518 0,-0.53454 -0.07096,-0.14193 -1.461691,-1.53266 -1.603618,-1.60362 -0.15937,-0.0797 -0.375169,0.0797 -0.534538,0 -0.450763,-0.22538 -0.618316,-0.8437 -1.069078,-1.06908 -0.159369,-0.0797 -0.375171,0.0797 -0.534541,0 -0.450762,-0.22538 -0.618315,-0.8437 -1.069078,-1.06908 -0.318735,-0.15937 -0.817094,0.25199 -1.069078,0 -0.125992,-0.12599 0.125992,-0.40855 0,-0.53454 -0.125992,-0.12599 -0.375168,0.0797 -0.534537,0 -0.225383,-0.11269 -0.309158,-0.42185 -0.534541,-0.53454 -0.159369,-0.0797 -0.375168,0.0797 -0.534537,0 -0.225383,-0.11269 -0.309158,-0.42184 -0.534541,-0.53454 -0.159369,-0.0797 -0.375168,0.0797 -0.534537,0 -0.225383,-0.11269 -0.309158,-0.42184 -0.534541,-0.53454 -0.318738,-0.15936 -0.75034,0.15937 -1.069078,0 -0.22538,-0.11268 -0.309158,-0.42184 -0.534538,-0.53453 -0.318738,-0.15937 -0.817094,0.25198 -1.069078,0 -0.125992,-0.126 -0.178181,-0.53454 0,-0.53454 0.178179,0 -0.178181,0.53454 0,0.53454 0.251984,0 0.309158,-0.42185 0.534538,-0.53454 0.159369,-0.0797 0.408548,0.12599 0.53454,0 0.125992,-0.126 -0.125992,-0.40855 0,-0.53454 0.109279,-0.10928 1.391677,0.10597 1.603616,0 0.225383,-0.11269 0.309158,-0.42185 0.534541,-0.53454 0.159369,-0.0797 0.375168,0.0797 0.534537,0 0.225383,-0.11269 0.309158,-0.42185 0.534541,-0.53454 0.318735,-0.15937 0.750339,0.15937 1.069078,0 0.22538,-0.11269 0.309157,-0.42185 0.534537,-0.53454 0.193308,-0.0967 2.300902,0 2.672697,0 0.178178,0 0.408546,0.12599 0.534537,0 0.125992,-0.12599 -0.125991,-0.40855 0,-0.53454 0.125992,-0.12599 0.35636,0 0.534541,0 0.178178,0 0.356359,0 0.534538,0 1.603618,0 3.207234,0 4.810852,0 0.129641,0 1.586426,0.0172 1.603616,0 0.125992,-0.12599 -0.125992,-0.40855 0,-0.53454 0.251986,-0.25198 0.750342,0.15937 1.069078,0 0.225383,-0.11269 0.309158,-0.42184 0.53454,-0.53454 0.159369,-0.0797 0.369105,0.0662 0.534538,0 0.739852,-0.29594 1.425437,-0.71271 2.138156,-1.06907 z"
       fill="param(fill) #fff" stroke="param(outline) #000" stroke-width="param(outline-width) 1" />
  </g>
</svg>
