<?xml version="1.0" encoding="UTF-8" standalone="no"?>
<svg
   xmlns:dc="http://purl.org/dc/elements/1.1/"
   xmlns:cc="http://creativecommons.org/ns#"
   xmlns:rdf="http://www.w3.org/1999/02/22-rdf-syntax-ns#"
   xmlns:svg="http://www.w3.org/2000/svg"
   xmlns="http://www.w3.org/2000/svg"
   width="300mm"
   height="300mm"
   viewBox="0 0 300 300"
   version="1.1"
   id="svg8">
  <defs
     id="defs2" />
  <metadata
     id="metadata5">
    <rdf:RDF>
      <cc:Work
         rdf:about="">
        <dc:format>image/svg+xml</dc:format>
        <dc:type
           rdf:resource="http://purl.org/dc/dcmitype/StillImage" />
        <dc:title></dc:title>
      </cc:Work>
    </rdf:RDF>
  </metadata>
  <g
     id="layer1"
     transform="translate(70.285326,-30.215781)">
    <path
       stroke-width="param(outline-width) 1"
       stroke="param(outline) #000"
       fill="param(fill) #fff"
       d="m 33.017341,133.79808 c -6.239814,-0.0607 -12.487849,0.4055 -18.536178,1.9036 -5.5815859,-0.18186 -12.5848252,2.32747 -11.4688652,9.21917 -0.7982089,5.89987 -6.7964551,7.9482 -10.9409368,11.0112 -3.712688,2.3605 -8.194847,3.54306 -11.727325,6.12807 -2.272216,2.8393 -5.977111,4.55282 -6.201592,-0.54976 -2.336964,-5.45565 3.336093,-10.30742 1.840047,-15.11814 -4.764407,-1.73286 -8.27254,5.5479 -8.727021,9.76442 -1.66635,4.82124 -2.794616,9.50451 -4.706714,14.28699 -2.606293,1.94828 -4.087588,5.1712 -7.378597,6.09131 -1.355567,2.01918 -2.255082,7.58755 1.238496,10.19347 0.999161,2.43036 0.431589,5.09287 4.450907,5.94448 2.778399,1.43168 3.277234,6.32442 6.894324,4.22299 -0.952593,2.05842 2.004342,5.48369 3.11893,2.03156 -1.309625,2.3883 1.235596,3.75828 1.73705,4.3686 -3.895247,0.8054 -7.568841,0.95295 -7.683788,4.61469 -4.377144,2.45991 -6.081137,7.74044 -9.588413,10.72905 -5.739945,-0.42903 -11.516131,-0.7598 -17.159835,-1.49255 -4.969285,-0.34968 -7.946518,6.66824 -3.516533,9.4818 2.955288,0.25031 1.970991,-4.4728 3.896322,-4.86893 4.588623,-2.90711 10.353785,1.55015 15.504684,-0.59788 4.801716,1.5171 9.306043,-4.30735 13.198749,-2.47675 0.946072,2.64233 0.509473,7.07828 4.4664,4.20423 1.507515,-2.45522 3.047419,-4.64827 5.69695,-5.02498 1.723307,-5.18479 6.977907,-6.90331 11.380888,-8.68058 1.787576,-0.32618 1.963294,1.35553 3.694964,0.14564 -1.1409732,3.7038 1.0519621,2.4036 2.22895,2.39765 1.5969626,0.26811 2.6151391,-3.22591 3.7486986,0.36636 0.85446443,2.69665 4.6212746,0.35721 4.4966868,3.03558 3.9329982,-3.12663 11.3856716,-0.80982 15.0228806,-5.76911 2.812241,-2.3092 7.155997,-1.73659 4.027862,-6.43187 1.260522,-3.98582 4.69542,-9.35278 7.648671,-7.39705 4.226813,-3.46638 -0.06844,1.98891 0.45437,2.71708 2.124736,-1.65684 4.571887,-2.72858 1.572941,0.44542 -4.143604,5.08434 3.888489,-1.83904 2.728164,-0.16216 -1.955974,2.08612 -4.942837,6.08116 -0.489712,2.68915 2.299945,-2.08386 -2.29788,5.61589 1.148635,2.81204 1.197293,1.17801 -2.370409,3.53988 1.250702,2.01971 -1.607904,2.51646 1.486464,3.96683 3.462615,1.6665 -1.134683,1.81175 -1.961032,5.22427 0.92567,1.99261 4.133576,-2.88678 -2.442757,3.14341 1.673846,3.84065 1.471047,-6.10252 2.544024,-1.08874 4.318518,1.12731 3.339813,0.0366 6.748683,-0.0267 9.904899,1.2104 4.914188,0.005 8.112015,2.70643 13.031415,2.82777 5.102337,-0.67403 11.693361,-3.01388 14.101026,2.01361 3.190364,-3.70817 8.417261,-3.15404 12.994137,-3.14313 4.006311,0.41254 8.904231,-0.82799 12.655491,1.25176 5.00043,-2.73969 10.97683,0.71055 15.7739,1.8592 4.34572,-2.21831 10.18473,-2.32666 15.26718,-1.90832 4.74865,-0.0104 9.24757,0.53612 13.9834,0.64976 2.44395,-0.22261 5.43956,0.65912 3.49594,-2.48525 3.13936,-4.17786 6.59294,2.79006 9.53637,2.09448 3.81329,3.17304 2.83595,-2.70063 5.14029,-2.72946 1.84526,1.71587 1.07946,1.18426 1.74042,0.50692 1.82602,2.42041 5.74684,0.72939 8.88799,3.39438 2.08072,0.952 10.0265,5.63923 5.20802,0.42711 -2.29579,-3.51804 8.50495,3.70891 4.64242,-0.9412 -1.35372,-2.49396 8.30082,3.52009 3.56259,-1.20664 -4.30433,-4.15762 9.91008,0.97021 3.91258,-3.02574 -0.23951,-2.3538 4.73761,0.63692 5.51753,-1.94191 3.50376,-0.64305 6.78387,-2.89451 10.84315,-2.49377 2.87208,-2.6382 8.1082,2.41051 6.59109,5.50911 3.62826,-1.74868 5.09375,-5.80858 0.75027,-8.1437 -2.32612,-1.80428 1.42755,-7.55027 -3.99542,-7.77229 -4.04381,-3.49451 -10.31838,-1.3453 -15.05952,-0.13037 -5.00229,2.26095 -11.06688,5.54702 -16.11287,5.55014 1.64048,-4.99448 5.37299,-14.7133 -2.97521,-15.63286 -4.56682,-1.92842 0.78162,-6.10428 -3.17076,-8.78698 -3.16726,-10.99979 -10.40046,-20.68165 -19.51202,-27.51473 -3.05136,-2.3739 -6.94256,-4.33455 -10.70034,-5.55167 -9.54647,-3.24323 -19.38891,-5.46388 -29.3422,-6.99768 -5.3777,-1.18173 -10.77891,-1.82859 -16.21538,-2.64389 -3.45835,-0.43842 -6.63041,-1.01175 -10.748637,-1.7599 -5.14757,0.50474 -10.429683,-0.38227 -15.64107,-0.17362 -7.849994,0.087 -15.920911,-0.26404 -23.551389,1.79052 -4.357205,0.80447 -8.865856,7.64689 -12.52584,2.06235 -1.937199,-2.60222 -1.5477,-6.41419 -5.981922,-6.31005 -1.776946,-0.83307 -3.803546,-0.6823 -5.709941,-0.73592 z m -1.761133,61.43036 c -2.495551,1.5824 -1.559172,2.08754 0,0 z m 180.871642,7.41557 c 2.25378,-0.38676 9.84112,2.58257 6.19269,3.91062 -4.48099,-0.0956 -9.40115,-0.3253 -13.41809,2.00709 -2.21175,-1.47408 -4.13355,-3.25782 0.0991,-3.60199 3.69638,0.49628 1.91193,-2.76491 5.93659,-1.73462 l 0.4775,-0.47775 0.71225,-0.1034 z m 9.11935,1.39888 c 3.12387,1.74211 -0.91858,3.83307 0,0 z m -26.4418,0.1788 c -0.87104,0.0133 -0.0237,0.35708 0,0 z m 5.10976,4.0659 c -0.52359,2.20494 -3.13418,0.15337 0,0 z M 43.021383,209.6875 c -0.527416,2.64345 -2.841627,2.58942 0,0 z"
       id="path828" />
  </g>
</svg>
